<?xml version="1.0" encoding="UTF-8" standalone="no"?>
<!-- Created with Inkscape (http://www.inkscape.org/) -->

<svg
   xmlns:dc="http://purl.org/dc/elements/1.1/"
   xmlns:cc="http://creativecommons.org/ns#"
   xmlns:rdf="http://www.w3.org/1999/02/22-rdf-syntax-ns#"
   xmlns:svg="http://www.w3.org/2000/svg"
   xmlns="http://www.w3.org/2000/svg"
   xmlns:sodipodi="http://sodipodi.sourceforge.net/DTD/sodipodi-0.dtd"
   xmlns:inkscape="http://www.inkscape.org/namespaces/inkscape"
   width="351.72668mm"
   height="351.72668mm"
   viewBox="0 0 351.72668 351.72668"
   version="1.1"
   id="svg1455"
   inkscape:version="0.92.2 (5c3e80d, 2017-08-06)"
   sodipodi:docname="Catstronomer.svg">
  <defs
     id="defs1449" />
  <sodipodi:namedview
     id="base"
     pagecolor="#ffffff"
     bordercolor="#666666"
     borderopacity="1.0"
     inkscape:pageopacity="0.0"
     inkscape:pageshadow="2"
     inkscape:zoom="0.9899495"
     inkscape:cx="553.79735"
     inkscape:cy="643.51926"
     inkscape:document-units="px"
     inkscape:current-layer="layer1"
     showgrid="true"
     showborder="true"
     inkscape:window-width="3840"
     inkscape:window-height="2004"
     inkscape:window-x="-16"
     inkscape:window-y="-16"
     inkscape:window-maximized="1"
     inkscape:pagecheckerboard="true"
     inkscape:showpageshadow="false"
     fit-margin-top="0"
     fit-margin-left="0"
     fit-margin-right="0"
     fit-margin-bottom="0"
     borderlayer="false"
     inkscape:object-paths="true"
     inkscape:snap-intersection-paths="true"
     inkscape:snap-smooth-nodes="true" />
  <metadata
     id="metadata1452">
    <rdf:RDF>
      <cc:Work
         rdf:about="">
        <dc:format>image/svg+xml</dc:format>
        <dc:type
           rdf:resource="http://purl.org/dc/dcmitype/StillImage" />
        <dc:title></dc:title>
      </cc:Work>
    </rdf:RDF>
  </metadata>
  <g
     inkscape:label="Layer 1"
     inkscape:groupmode="layer"
     id="layer1"
     transform="translate(306.37085,227.57919)">
    <circle
       style="opacity:1;fill:#000000;fill-opacity:1;stroke:#ffffff;stroke-width:0;stroke-linecap:round;stroke-linejoin:round;stroke-miterlimit:4;stroke-dasharray:none"
       id="path823"
       cx="-130.50751"
       cy="-51.715851"
       r="175.86334" />
    <path
       inkscape:connector-curvature="0"
       style="opacity:1;fill:#ffffff;stroke:#000000;stroke-width:0;stroke-linecap:round;stroke-linejoin:round;stroke-miterlimit:4;stroke-dasharray:none"
       d="m -199.83561,-38.546905 c -2.36031,0.6367 -5.29229,5.8793 -5.42339,9.078 -11.6043,4.3542 -6.53832,16.4605 -8.62096,23.8806997 -13.17523,2.194 -22.84823,13.4978 -24.33473,28.2098003 -0.81442,8.0613 -0.76621,11.5457 0.13839,19.1329 -2.83274,2.7763 -2.6964,3.29419 -2.64103,5.1672 0.12186,4.1478 11.73301,3.69772 21.83863,3.5061 9.3331,-0.17761 20.23026,1.4989 21.47576,-2.1097 0.77055,-2.23251 -1.02506,-3.9655 -5.00591,-4.5383 3.42029,-3.3546 3.59655,-4.9614 3.82395,-8.6595 0.73237,1.5529 2.73036,11.24279 5.05411,14.63689 1.68834,0.67392 8.15627,1.61952 7.739,-1.71889 -1.76841,-2.88981 -3.09497,-1.06011 -3.96291,-2.93259 -1.81443,-6.22331 -1.50009,-16.75791 -2.43408,-20.94781 9.37085,-14.7577003 -2.82676,-20.2283003 1.80748,-32.1207003 3.33172,-1.4929 6.69467,-2.9054997 6.95308,-12.5689997 -1.25713,-1.018 -2.68302,-1.0066 -4.31097,-2.3734 -3.10769,-7.6745 -6.53822,-8.2255 -10.01182,-7.8213 -0.0849,-1.2989 -0.1446,-4.5707 -2.08493,-7.8204 z"
       id="path2191" />
    <path
       inkscape:connector-curvature="0"
       style="fill:#ffffff;stroke:#000000;stroke-width:0;stroke-linecap:round;stroke-linejoin:round;stroke-miterlimit:4;stroke-dasharray:none;stroke-opacity:1"
       d="m -155.22187,-57.550505 -16.78256,12.6865 -2.71175,2.0499 -4.42293,3.3437 -0.001,10e-4 c 0,0.1963 0.0207,0.387 0.0229,0.5746 0.025,0.3752 0.0708,0.734 0.13427,1.0782 0.22359,1.2045 0.6686,2.2208 1.21807,3.0651 0.31412,0.4825 0.66198,0.9092 1.02266,1.2824 0.17975,0.1859 0.36385,0.3594 0.54794,0.5197 0.92017,0.802 1.85165,1.2801 2.4553,1.4819 0.1198,0.039 0.22752,0.071 0.31924,0.089 0.0925,0.02 0.16941,0.025 0.22643,0.023 0.0555,0 0.0968,-0.02 0.11359,-0.037 l 23.91724,-18.0802 z"
       id="path2193" />
    <path
       inkscape:connector-curvature="0"
       id="path2195"
       d="m -156.48586,-60.376905 c 2.91337,10.0794 10.00389,13.306 10.00389,13.306 l 39.57443,-30.1373 -10.00378,-13.3058 -39.57454,30.1371"
       style="fill:#ffffff;stroke:#ffffff;stroke-width:0;stroke-linecap:round;stroke-linejoin:round;stroke-miterlimit:4;stroke-dasharray:none;stroke-opacity:1"
       sodipodi:nodetypes="ccccc" />
    <path
       inkscape:connector-curvature="0"
       id="path2197"
       d="m -119.01616,-94.413905 c 4.42153,12.3076 15.27342,20.2696 15.27342,20.2696 l 86.728433,-66.515595 c -7.39023,-12.324 -9.55119,-13.21231 -15.2736,-20.26941 l -86.728473,66.515505"
       style="fill:#ffffff;stroke:#ffffff;stroke-width:0;stroke-linecap:round;stroke-linejoin:round;stroke-miterlimit:4;stroke-dasharray:none;stroke-opacity:1"
       sodipodi:nodetypes="ccccc" />
    <path
       inkscape:connector-curvature="0"
       id="path2199"
       d="m -32.307747,-160.91421 c 9.67351,5.7517 12.70505,12.6046 15.2736,20.26951 z"
       style="fill:#ffffff;stroke:#ffffff;stroke-width:0;stroke-linecap:round;stroke-linejoin:round;stroke-miterlimit:4;stroke-dasharray:none;stroke-opacity:1"
       sodipodi:nodetypes="ccc" />
    <path
       inkscape:connector-curvature="0"
       style="opacity:1;fill:#ffffff;stroke:#00ffff;stroke-width:0;stroke-linecap:round;stroke-linejoin:round;stroke-miterlimit:4;stroke-dasharray:none"
       d="m -95.33811,-65.976217 a 12.978724,12.979006 0 0 1 -12.97866,12.97907 12.978724,12.979006 0 0 1 -12.97879,-12.97907 12.978724,12.979006 0 0 1 12.97879,-12.978977 12.978724,12.979006 0 0 1 12.97866,12.978977 z"
       id="circle2201" />
    <path
       style="color:#000000;font-style:normal;font-variant:normal;font-weight:normal;font-stretch:normal;font-size:medium;line-height:normal;font-family:sans-serif;font-variant-ligatures:normal;font-variant-position:normal;font-variant-caps:normal;font-variant-numeric:normal;font-variant-alternates:normal;font-feature-settings:normal;text-indent:0;text-align:start;text-decoration:none;text-decoration-line:none;text-decoration-style:solid;text-decoration-color:#000000;letter-spacing:normal;word-spacing:normal;text-transform:none;writing-mode:lr-tb;direction:ltr;text-orientation:mixed;dominant-baseline:auto;baseline-shift:baseline;text-anchor:start;white-space:normal;shape-padding:0;clip-rule:nonzero;display:inline;overflow:visible;visibility:visible;opacity:1;isolation:auto;mix-blend-mode:normal;color-interpolation:sRGB;color-interpolation-filters:linearRGB;solid-color:#000000;solid-opacity:1;vector-effect:none;fill:#ffffff;fill-opacity:1;fill-rule:nonzero;stroke:none;stroke-width:2.11666656;stroke-linecap:round;stroke-linejoin:round;stroke-miterlimit:4;stroke-dasharray:none;stroke-dashoffset:0;stroke-opacity:1;color-rendering:auto;image-rendering:auto;shape-rendering:auto;text-rendering:auto;enable-background:accumulate"
       d="m -108.78278,-68.624597 a 2.8844494,2.8845119 0 0 0 -2.73615,2.416485 l -20.18876,113.204463 a 2.8844494,2.8845119 0 1 0 5.67929,1.011348 l 20.18876,-113.204464 a 2.8844494,2.8845119 0 0 0 -2.94314,-3.427832 z"
       id="path2203"
       inkscape:connector-curvature="0" />
    <path
       inkscape:connector-curvature="0"
       id="path2242"
       d="m -108.56137,-68.624597 a 2.8844494,2.8845119 0 0 1 2.73615,2.416485 l 20.188757,113.204463 a 2.8844494,2.8845119 0 1 1 -5.679285,1.011348 L -111.50451,-65.196765 a 2.8844494,2.8845119 0 0 1 2.94314,-3.427832 z"
       style="color:#000000;font-style:normal;font-variant:normal;font-weight:normal;font-stretch:normal;font-size:medium;line-height:normal;font-family:sans-serif;font-variant-ligatures:normal;font-variant-position:normal;font-variant-caps:normal;font-variant-numeric:normal;font-variant-alternates:normal;font-feature-settings:normal;text-indent:0;text-align:start;text-decoration:none;text-decoration-line:none;text-decoration-style:solid;text-decoration-color:#000000;letter-spacing:normal;word-spacing:normal;text-transform:none;writing-mode:lr-tb;direction:ltr;text-orientation:mixed;dominant-baseline:auto;baseline-shift:baseline;text-anchor:start;white-space:normal;shape-padding:0;clip-rule:nonzero;display:inline;overflow:visible;visibility:visible;opacity:1;isolation:auto;mix-blend-mode:normal;color-interpolation:sRGB;color-interpolation-filters:linearRGB;solid-color:#000000;solid-opacity:1;vector-effect:none;fill:#ffffff;fill-opacity:1;fill-rule:nonzero;stroke:none;stroke-width:2.11666656;stroke-linecap:round;stroke-linejoin:round;stroke-miterlimit:4;stroke-dasharray:none;stroke-dashoffset:0;stroke-opacity:1;color-rendering:auto;image-rendering:auto;shape-rendering:auto;text-rendering:auto;enable-background:accumulate" />
  </g>
</svg>
