<?xml version="1.0" encoding="UTF-8" standalone="no"?>
<!-- Created with Inkscape (http://www.inkscape.org/) -->

<svg
   xmlns:dc="http://purl.org/dc/elements/1.1/"
   xmlns:cc="http://creativecommons.org/ns#"
   xmlns:rdf="http://www.w3.org/1999/02/22-rdf-syntax-ns#"
   xmlns:svg="http://www.w3.org/2000/svg"
   xmlns="http://www.w3.org/2000/svg"
   xmlns:sodipodi="http://sodipodi.sourceforge.net/DTD/sodipodi-0.dtd"
   xmlns:inkscape="http://www.inkscape.org/namespaces/inkscape"
   width="432.57831mm"
   height="432.57831mm"
   viewBox="0 0 432.5783 432.5783"
   version="1.1"
   id="svg1455"
   inkscape:version="0.92.2 (5c3e80d, 2017-08-06)"
   sodipodi:docname="Catstronomer with name.svg"
   inkscape:export-filename="D:\Dropbox\Inkscape\Catstronomer with name.png"
   inkscape:export-xdpi="58.717693"
   inkscape:export-ydpi="58.717693">
  <defs
     id="defs1449" />
  <sodipodi:namedview
     id="base"
     pagecolor="#ffffff"
     bordercolor="#666666"
     borderopacity="1.0"
     inkscape:pageopacity="0.0"
     inkscape:pageshadow="2"
     inkscape:zoom="0.35355339"
     inkscape:cx="533.21736"
     inkscape:cy="707.44004"
     inkscape:document-units="px"
     inkscape:current-layer="layer1"
     showgrid="true"
     showborder="true"
     inkscape:window-width="3840"
     inkscape:window-height="2004"
     inkscape:window-x="-16"
     inkscape:window-y="-16"
     inkscape:window-maximized="1"
     inkscape:pagecheckerboard="true"
     inkscape:showpageshadow="false"
     fit-margin-top="0"
     fit-margin-left="0"
     fit-margin-right="0"
     fit-margin-bottom="0"
     borderlayer="false"
     inkscape:object-paths="true"
     inkscape:snap-intersection-paths="false"
     inkscape:snap-smooth-nodes="false"
     showguides="true"
     inkscape:guide-bbox="true"
     inkscape:snap-object-midpoints="true"
     inkscape:snap-text-baseline="true"
     inkscape:object-nodes="false" />
  <metadata
     id="metadata1452">
    <rdf:RDF>
      <cc:Work
         rdf:about="">
        <dc:format>image/svg+xml</dc:format>
        <dc:type
           rdf:resource="http://purl.org/dc/dcmitype/StillImage" />
        <dc:title></dc:title>
      </cc:Work>
    </rdf:RDF>
  </metadata>
  <g
     inkscape:label="Layer 1"
     inkscape:groupmode="layer"
     id="layer1"
     transform="translate(346.79666,277.15232)">
    <circle
       style="opacity:1;fill:#000000;fill-opacity:1;stroke:#ffffff;stroke-width:0;stroke-linecap:round;stroke-linejoin:round;stroke-miterlimit:4;stroke-dasharray:none"
       id="path823"
       cx="-130.50751"
       cy="-60.863167"
       r="216.28915" />
    <g
       id="g960"
       transform="translate(0,2.619242)">
      <g
         transform="translate(-1.631528,-17.333721)"
         id="g874">
        <path
           inkscape:connector-curvature="0"
           style="opacity:1;fill:#ffffff;stroke:#000000;stroke-width:0;stroke-linecap:round;stroke-linejoin:round;stroke-miterlimit:4;stroke-dasharray:none"
           d="m -199.83561,-67.946552 c -2.36031,0.6367 -5.29229,5.8793 -5.42339,9.078 -11.6043,4.3542 -6.53832,16.4605 -8.62096,23.8807 -13.17523,2.194 -22.84823,13.4978 -24.33473,28.2098 -0.81442,8.0613 -0.76621,11.5457 0.13839,19.1329 -2.83274,2.7763 -2.6964,3.29419 -2.64103,5.1672 0.12186,4.1478 11.73301,3.69772 21.83863,3.5061 9.3331,-0.17761 20.23026,1.4989 21.47576,-2.1097 0.77055,-2.23251 -1.02506,-3.9655 -5.00591,-4.5383 3.42029,-3.3546 3.59655,-4.9614 3.82395,-8.6595 0.73237,1.5529 2.73036,11.24279 5.05411,14.63689 1.68834,0.67392 8.15627,1.61952 7.739,-1.71889 -1.76841,-2.88981 -3.09497,-1.06011 -3.96291,-2.93259 -1.81443,-6.22331 -1.50009,-16.75791 -2.43408,-20.94781 9.37085,-14.7577 -2.82676,-20.2283 1.80748,-32.1207 3.33172,-1.4929 6.69467,-2.9055 6.95308,-12.569 -1.25713,-1.018 -2.68302,-1.0066 -4.31097,-2.3734 -3.10769,-7.6745 -6.53822,-8.2255 -10.01182,-7.8213 -0.0849,-1.2989 -0.1446,-4.5707 -2.08493,-7.8204 z"
           id="path2191" />
        <path
           inkscape:connector-curvature="0"
           style="fill:#ffffff;stroke:#000000;stroke-width:0;stroke-linecap:round;stroke-linejoin:round;stroke-miterlimit:4;stroke-dasharray:none;stroke-opacity:1"
           d="m -155.22187,-86.950152 -16.78256,12.6865 -2.71175,2.0499 -4.42293,3.3437 -0.001,0.001 c 0,0.1963 0.0207,0.387 0.0229,0.5746 0.025,0.3752 0.0708,0.734 0.13427,1.0782 0.22359,1.2045 0.6686,2.2208 1.21807,3.0651 0.31412,0.4825 0.66198,0.9092 1.02266,1.2824 0.17975,0.1859 0.36385,0.3594 0.54794,0.5197 0.92017,0.802 1.85165,1.2801 2.4553,1.4819 0.1198,0.039 0.22752,0.071 0.31924,0.089 0.0925,0.02 0.16941,0.025 0.22643,0.023 0.0555,0 0.0968,-0.02 0.11359,-0.037 l 23.91724,-18.0802 z"
           id="path2193" />
        <path
           inkscape:connector-curvature="0"
           id="path2195"
           d="m -156.48586,-89.776552 c 2.91337,10.0794 10.00389,13.306 10.00389,13.306 l 39.57443,-30.137298 -10.00378,-13.3058 -39.57454,30.137098"
           style="fill:#ffffff;stroke:#ffffff;stroke-width:0;stroke-linecap:round;stroke-linejoin:round;stroke-miterlimit:4;stroke-dasharray:none;stroke-opacity:1"
           sodipodi:nodetypes="ccccc" />
        <path
           inkscape:connector-curvature="0"
           id="path2197"
           d="m -119.01616,-123.81355 c 4.42153,12.3076 15.27342,20.2696 15.27342,20.2696 l 86.728433,-66.5156 c -7.39023,-12.324 -9.55119,-13.21231 -15.2736,-20.26941 l -86.728473,66.51551"
           style="fill:#ffffff;stroke:#ffffff;stroke-width:0;stroke-linecap:round;stroke-linejoin:round;stroke-miterlimit:4;stroke-dasharray:none;stroke-opacity:1"
           sodipodi:nodetypes="ccccc" />
        <path
           inkscape:connector-curvature="0"
           id="path2199"
           d="m -32.307747,-190.31386 c 9.67351,5.7517 12.70505,12.6046 15.2736,20.26951 z"
           style="fill:#ffffff;stroke:#ffffff;stroke-width:0;stroke-linecap:round;stroke-linejoin:round;stroke-miterlimit:4;stroke-dasharray:none;stroke-opacity:1"
           sodipodi:nodetypes="ccc" />
        <path
           inkscape:connector-curvature="0"
           style="opacity:1;fill:#ffffff;stroke:#00ffff;stroke-width:0;stroke-linecap:round;stroke-linejoin:round;stroke-miterlimit:4;stroke-dasharray:none"
           d="m -95.33811,-95.375864 a 12.978724,12.979006 0 0 1 -12.97866,12.97907 12.978724,12.979006 0 0 1 -12.97879,-12.97907 12.978724,12.979006 0 0 1 12.97879,-12.978976 12.978724,12.979006 0 0 1 12.97866,12.978976 z"
           id="circle2201" />
        <path
           style="color:#000000;font-style:normal;font-variant:normal;font-weight:normal;font-stretch:normal;font-size:medium;line-height:normal;font-family:sans-serif;font-variant-ligatures:normal;font-variant-position:normal;font-variant-caps:normal;font-variant-numeric:normal;font-variant-alternates:normal;font-feature-settings:normal;text-indent:0;text-align:start;text-decoration:none;text-decoration-line:none;text-decoration-style:solid;text-decoration-color:#000000;letter-spacing:normal;word-spacing:normal;text-transform:none;writing-mode:lr-tb;direction:ltr;text-orientation:mixed;dominant-baseline:auto;baseline-shift:baseline;text-anchor:start;white-space:normal;shape-padding:0;clip-rule:nonzero;display:inline;overflow:visible;visibility:visible;opacity:1;isolation:auto;mix-blend-mode:normal;color-interpolation:sRGB;color-interpolation-filters:linearRGB;solid-color:#000000;solid-opacity:1;vector-effect:none;fill:#ffffff;fill-opacity:1;fill-rule:nonzero;stroke:none;stroke-width:2.11666656;stroke-linecap:round;stroke-linejoin:round;stroke-miterlimit:4;stroke-dasharray:none;stroke-dashoffset:0;stroke-opacity:1;color-rendering:auto;image-rendering:auto;shape-rendering:auto;text-rendering:auto;enable-background:accumulate"
           d="m -108.78278,-98.024244 a 2.8844494,2.8845119 0 0 0 -2.73615,2.416485 l -20.18876,113.204463 a 2.8844494,2.8845119 0 1 0 5.67929,1.011348 l 20.18876,-113.204464 a 2.8844494,2.8845119 0 0 0 -2.94314,-3.427832 z"
           id="path2203"
           inkscape:connector-curvature="0" />
        <path
           inkscape:connector-curvature="0"
           id="path2242"
           d="m -108.56137,-98.024244 a 2.8844494,2.8845119 0 0 1 2.73615,2.416485 l 20.188757,113.204463 a 2.8844494,2.8845119 0 1 1 -5.679285,1.011348 L -111.50451,-94.596412 a 2.8844494,2.8845119 0 0 1 2.94314,-3.427832 z"
           style="color:#000000;font-style:normal;font-variant:normal;font-weight:normal;font-stretch:normal;font-size:medium;line-height:normal;font-family:sans-serif;font-variant-ligatures:normal;font-variant-position:normal;font-variant-caps:normal;font-variant-numeric:normal;font-variant-alternates:normal;font-feature-settings:normal;text-indent:0;text-align:start;text-decoration:none;text-decoration-line:none;text-decoration-style:solid;text-decoration-color:#000000;letter-spacing:normal;word-spacing:normal;text-transform:none;writing-mode:lr-tb;direction:ltr;text-orientation:mixed;dominant-baseline:auto;baseline-shift:baseline;text-anchor:start;white-space:normal;shape-padding:0;clip-rule:nonzero;display:inline;overflow:visible;visibility:visible;opacity:1;isolation:auto;mix-blend-mode:normal;color-interpolation:sRGB;color-interpolation-filters:linearRGB;solid-color:#000000;solid-opacity:1;vector-effect:none;fill:#ffffff;fill-opacity:1;fill-rule:nonzero;stroke:none;stroke-width:2.11666656;stroke-linecap:round;stroke-linejoin:round;stroke-miterlimit:4;stroke-dasharray:none;stroke-dashoffset:0;stroke-opacity:1;color-rendering:auto;image-rendering:auto;shape-rendering:auto;text-rendering:auto;enable-background:accumulate" />
      </g>
      <g
         transform="matrix(1.0537647,0,0,1.0537647,6.542525,0.99371869)"
         id="text845"
         style="font-style:normal;font-variant:normal;font-weight:normal;font-stretch:normal;font-size:50.79999924px;line-height:1.25;font-family:Allura;-inkscape-font-specification:Allura;letter-spacing:0px;word-spacing:0px;fill:#ffffff;fill-opacity:1;stroke:none;stroke-width:0.25108388"
         aria-label="Yu Jo Tseng">
        <path
           inkscape:connector-curvature="0"
           id="path878"
           style="font-style:normal;font-variant:normal;font-weight:normal;font-stretch:normal;font-size:50.79999924px;font-family:Allura;-inkscape-font-specification:Allura;fill:#ffffff;fill-opacity:1;stroke-width:0.25108388"
           d="m -201.32819,28.127727 c -0.6096,-0.0508 -2.794,-0.762 -4.9784,0.1524 -0.6096,0.254 -1.2192,0.6096 -1.6256,1.3208 -0.254,0.2032 -0.4572,0.5588 -0.7112,1.0668 -0.4572,0.8636 -0.8128,1.8796 -1.3208,2.9464 -4.4704,9.4488 -13.3604,22.4028 -19.1516,22.4028 -1.8288,0 -3.048,-1.6256 -2.286,-6.096 1.27,-6.9088 8.7884,-19.1516 9.906,-21.0312 0.3556,-0.9144 -2.9464,-0.762 -3.2004,0 -0.9144,1.6764 -7.7724,7.7724 -10.668,8.0772 -0.762,0.0508 -0.9144,0.9144 -0.1524,0.8128 2.0828,-0.1524 4.6228,-1.6256 6.9088,-3.556 1.1684,-0.9144 1.6256,-0.8636 1.2192,0 -2.3876,5.9436 -7.7216,14.224 -6.9088,20.2692 0.3556,2.4384 1.778,3.302 3.5052,3.302 5.7404,0 12.954,-7.9756 18.288,-16.1036 -1.6256,5.4864 -2.9972,11.176 -3.6576,12.8524 -6.604,2.1336 -12.2428,5.334 -16.8656,10.6172 -10.6172,12.141199 7.8232,18.948399 19.05,-9.6012 0.4572,-1.1684 4.4196,-1.9304 5.1308,-1.5748 0.4064,0.2032 0.5588,-0.4572 0.254,-0.7112 -0.5588,-0.3048 -2.3876,-0.0508 -4.6736,0.508 0.8636,-2.4384 4.826,-15.6464 6.096,-18.9484 1.4224,-3.9116 2.9464,-5.9436 5.6388,-5.6896 0.7112,0 1.1176,-0.8128 0.2032,-1.016 z m -15.1384,27.3812 c -1.8796,5.2324 -4.5212,10.4648 -8.0772,14.7828 -6.5024,7.975599 -12.7508,2.9464 -5.9944,-5.3848 3.7084,-4.572 8.5344,-7.5692 14.0716,-9.398 z" />
        <path
           inkscape:connector-curvature="0"
           id="path880"
           style="font-style:normal;font-variant:normal;font-weight:normal;font-stretch:normal;font-size:50.79999924px;font-family:Allura;-inkscape-font-specification:Allura;fill:#ffffff;fill-opacity:1;stroke-width:0.25108388"
           d="m -183.98555,49.057327 c 0.254,-0.4572 -0.4064,-0.762 -0.6604,-0.4064 -2.0828,2.9464 -5.8928,6.1468 -7.5184,7.0612 -1.6764,0.8636 -2.6924,-0.3048 -2.3876,-2.4892 0.254,-1.8288 0.8636,-3.556 1.6256,-5.0292 0.6604,-1.3208 2.54,-4.4704 3.1496,-5.4864 0.508,-0.9144 -1.9812,-1.3716 -2.6416,-1.3716 -0.6604,1.016 -2.3876,4.2672 -3.302,5.588 -1.8796,2.7432 -4.064,5.6896 -5.9436,7.2136 -3.556,2.8448 -5.842,1.6764 -4.2164,-2.6416 1.27,-3.4036 3.8608,-6.096 4.9784,-7.112 0.3556,-0.254 0.7112,-0.762 0.1016,-1.016 -0.7112,-0.254 -1.8796,-0.254 -2.7432,0 -0.4572,0.1524 -1.7272,2.032 -2.4384,3.1496 -1.8288,2.794 -2.9464,6.604 -1.778,8.4836 0.6604,1.0668 2.54,1.7272 3.556,1.7272 4.1656,0 7.3152,-7.366 8.0772,-7.874 -0.7112,1.778 -1.3208,5.1816 -0.8636,6.5532 1.016,3.048 4.7244,1.8288 6.4008,0.6096 2.54,-1.8288 5.6388,-5.1816 6.604,-6.9596 z" />
        <path
           inkscape:connector-curvature="0"
           id="path882"
           style="font-style:normal;font-variant:normal;font-weight:normal;font-stretch:normal;font-size:50.79999924px;font-family:Allura;-inkscape-font-specification:Allura;fill:#ffffff;fill-opacity:1;stroke-width:0.25108388"
           d="m -146.23797,26.248127 c -0.9652,0 -1.8796,0.5588 -2.6924,1.4732 -6.7056,-1.2192 -17.5768,0.1524 -17.2212,6.6548 0,0.2032 0.1524,0.5588 0.1524,0.6096 0.0508,2.3876 2.794,4.0132 4.0132,4.2672 0.508,0.1524 0.6604,-0.1016 0.1016,-0.508 -0.8128,-0.508 -2.8956,-1.1176 -3.048,-3.048 -0.254,-4.7752 8.5344,-6.4008 14.732,-6.1468 -2.032,3.556 -3.4036,8.9916 -4.2672,11.43 -6.604,2.0828 -12.2936,5.2832 -16.8656,10.5156 -10.668,12.192 8.5852,19.2532 19.05,-9.4996 0.4572,-1.27 4.3688,-1.9812 5.1308,-1.5748 0.4064,0.1524 0.5588,-0.4572 0.2032,-0.7112 -0.5588,-0.3048 -2.54,-0.0508 -4.8768,0.508 0.9144,-3.2004 1.9304,-7.62 3.1496,-10.5664 1.2192,0.1524 2.2352,0.3556 2.9972,0.6096 3.048,1.016 1.0668,-1.1176 0.3048,-1.4732 -0.6096,-0.3048 -1.4732,-0.5588 -2.3368,-0.8128 0.508,-0.4572 1.0668,-0.762 1.4732,-0.9144 0.6096,-0.1016 0.8128,-0.8128 0,-0.8128 z m -8.5344,15.6972 c -1.8796,5.1816 -4.572,10.4648 -8.0772,14.732 -6.604,7.9756 -12.7508,2.9464 -5.9944,-5.334 3.6576,-4.572 8.4836,-7.5692 14.0716,-9.398 z" />
        <path
           inkscape:connector-curvature="0"
           id="path884"
           style="font-style:normal;font-variant:normal;font-weight:normal;font-stretch:normal;font-size:50.79999924px;font-family:Allura;-inkscape-font-specification:Allura;fill:#ffffff;fill-opacity:1;stroke-width:0.25108388"
           d="m -135.55886,52.511727 c -1.524,2.286 -3.7084,3.9624 -5.2832,3.9624 -1.8796,0 -2.4892,-1.7272 -2.1336,-3.7084 0.8128,-4.6228 5.6896,-9.8044 7.9248,-9.8044 0.9652,0 1.0668,0.8128 0.9652,1.3716 0,0.4064 0.762,0.4572 0.8636,-0.3556 0.2032,-1.27 -0.5588,-2.1336 -1.4732,-2.4384 -1.524,-0.5588 -3.81,0.254 -5.6896,1.9304 -2.286,2.032 -3.9624,4.7244 -4.4704,6.6548 -0.9144,3.1496 -0.3048,5.5372 1.3716,6.5532 1.6764,1.0668 4.4196,0.9144 6.7056,-1.016 0.6604,-0.6096 1.3208,-1.27 1.9812,-1.9812 0.3556,0.762 1.2192,1.27 2.0828,1.27 1.9812,0 4.0132,-2.1844 5.1308,-3.556 0.762,-0.9144 1.4224,-1.7272 1.7272,-2.3368 0.254,-0.4572 -0.3556,-0.762 -0.6096,-0.4064 -0.508,0.7112 -1.1684,1.4732 -1.778,2.1844 -1.016,1.0668 -2.6924,2.9464 -4.318,2.9464 -0.6604,0 -1.2192,-0.4064 -1.27,-1.3716 1.1176,-1.5748 2.8956,-4.7244 2.1844,-6.8072 -0.4064,-1.3716 -2.6416,-0.8636 -2.0828,0.5588 0.254,0.6096 0.6604,1.6764 -0.7112,4.4196 -0.8636,-0.254 -1.5748,0.5588 -1.27,1.6256 0,0.1524 0.1016,0.2032 0.1524,0.3048 z" />
        <path
           inkscape:connector-curvature="0"
           id="path886"
           style="font-style:normal;font-variant:normal;font-weight:normal;font-stretch:normal;font-size:50.79999924px;font-family:Allura;-inkscape-font-specification:Allura;fill:#ffffff;fill-opacity:1;stroke-width:0.25108388"
           d="m -106.02818,54.950127 c -1.1176,1.3716 -2.8448,1.5748 -1.6256,-1.3208 1.9304,-4.7244 9.702797,-20.0152 14.376397,-20.0152 0.2032,0 0.4572,0.1016 0.6604,0.254 0.2032,-1.5748 -2.3368,-2.286 -2.9972,-2.286 -2.6416,0 -6.197597,4.3688 -6.553197,6.0452 0.1524,0.3048 0.3556,0.8128 -0.3048,2.0828 -1.4732,2.9972 -8.3312,14.5288 -7.874,17.78 0.0508,0.3556 1.6764,0.6096 1.9812,0.6096 1.3716,0 2.7432,-2.4384 3.556,-3.556 0.0508,-0.0508 0.9652,-1.0668 0.6096,-1.3208 -0.4064,-0.0508 -1.1176,0.8128 -1.8288,1.7272 z m 21.742396,-17.3228 c -1.2192,-1.8796 0.4064,-4.4196 2.1844,-6.1976 1.016,-1.016 2.1336,-1.6256 2.6416,-2.1336 1.1176,-1.2192 -0.2032,-2.0828 -1.4732,-1.8288 -0.508,0.0508 -1.1684,0.5588 -2.0828,1.5748 -3.81,-0.0508 -12.649199,-2.286 -20.472396,-1.778 -6.5532,0.4572 -12.7,2.8448 -13.7668,7.9248 -0.0508,0.254 -0.0508,0.762 -0.0508,0.8128 -1.1176,2.9972 2.1336,5.334 3.8608,5.842 0.6096,0.2032 1.0668,-0.1524 0.4572,-0.6096 -1.016,-0.762 -3.6576,-1.7272 -3.048,-4.2164 0.9144,-4.2164 6.35,-6.9088 12.446,-7.7216 6.400797,-0.9652 13.309597,0.3556 19.913596,0.508 -0.3048,0.3048 -0.9652,1.0668 -1.2192,1.524 -1.1176,2.286 -1.0668,5.842 -0.4064,6.5532 0.6604,0.8128 1.3208,0.1524 1.016,-0.254 z" />
        <path
           inkscape:connector-curvature="0"
           id="path888"
           style="font-style:normal;font-variant:normal;font-weight:normal;font-stretch:normal;font-size:50.79999924px;font-family:Allura;-inkscape-font-specification:Allura;fill:#ffffff;fill-opacity:1;stroke-width:0.25108388"
           d="m -97.039755,55.559727 c 0.3556,-0.1524 0.254,-0.6096 -0.1016,-0.508 -0.9652,0.4064 -1.9304,0.9652 -2.4384,1.4732 -0.558795,0.6604 -1.015995,1.524 -0.660395,2.032 0.558795,1.0668 2.692395,0.762 3.657595,0.5588 2.4892,-0.5588 5.3848,-1.778 7.112,-3.7084 3.7592,-4.2164 -0.5588,-5.4356 -4.0132,-7.4676 -1.4224,-0.8636 -1.6256,-1.8796 -0.5588,-3.3528 1.27,-1.778 2.6924,-2.8448 4.3688,-3.6576 1.2192,-0.6096 3.9624,-1.7272 5.5372,-1.6256 1.4224,0.1524 0.762,1.9304 -0.0508,2.7432 -0.6604,0.6604 0,0.9652 0.254,0.762 0.7112,-0.4572 1.27,-1.016 1.5748,-1.7272 1.1684,-2.3876 -0.8636,-3.4544 -3.1496,-3.4544 -3.6576,0 -10.3124,3.302 -10.8204,7.2644 -0.3556,1.016 -1.27,2.7432 -2.7432,4.7752 -0.3556,0.5588 0.254,1.016 0.7112,0.4572 0.9144,-1.3208 1.7272,-2.54 2.286,-3.5052 0.3048,0.762 0.9652,1.3208 1.7272,1.8288 0.9652,0.6604 3.81,1.7272 3.81,3.1496 0,2.9464 -3.7592,5.842 -6.2992,6.604 -1.8796,0.508 -2.3368,-0.508 -1.5748,-1.524 0.3048,-0.4064 0.8128,-0.8636 1.3716,-1.1176 z" />
        <path
           inkscape:connector-curvature="0"
           id="path890"
           style="font-style:normal;font-variant:normal;font-weight:normal;font-stretch:normal;font-size:50.79999924px;font-family:Allura;-inkscape-font-specification:Allura;fill:#ffffff;fill-opacity:1;stroke-width:0.25108388"
           d="m -70.122102,46.263327 c 0.9652,-1.4224 1.27,-4.0132 -0.8128,-4.7244 -3.81,-1.27 -11.684,5.3848 -13.208,8.8392 -2.794,6.4008 3.7084,8.4836 8.89,6.4008 3.556,-1.4732 6.7564,-4.2672 8.7884,-7.62 0.2032,-0.254 0.2032,-0.508 -0.0508,-0.6096 -0.1016,-0.1016 -0.3556,-0.1016 -0.5588,0.1524 -1.8288,2.794 -5.08,5.5372 -8.8392,7.0612 -3.302,1.3208 -7.2136,1.27 -5.9436,-2.9972 1.1176,-3.7084 5.4864,-7.9248 8.4836,-9.2964 0.7112,-0.3556 2.54,-1.1176 2.5908,0.3048 0.1016,1.1176 -1.4224,2.6416 -2.286,3.302 -1.8796,1.524 -4.7244,3.1496 -6.35,3.302 -0.762,0.0508 -0.4064,0.762 0.3556,0.7112 2.286,-0.2032 7.112,-2.1336 8.9408,-4.826 z" />
        <path
           inkscape:connector-curvature="0"
           id="path892"
           style="font-style:normal;font-variant:normal;font-weight:normal;font-stretch:normal;font-size:50.79999924px;font-family:Allura;-inkscape-font-specification:Allura;fill:#ffffff;fill-opacity:1;stroke-width:0.25108388"
           d="m -56.184649,46.364927 c -1.27,2.3368 -5.4356,10.414 -0.1016,10.922 1.4224,0.1524 3.0988,-0.5588 4.064,-1.27 2.54,-1.8288 5.6388,-5.1816 6.604,-6.9596 0.254,-0.4572 -0.4064,-0.762 -0.6604,-0.4064 -2.0828,2.9464 -5.9436,6.1468 -7.5692,7.0612 -1.6256,0.8636 -2.6416,-0.3048 -2.3368,-2.4892 0.1524,-0.9652 0.508,-2.3368 1.1684,-3.8608 0.6604,-1.7272 1.8288,-3.302 2.3876,-5.0292 1.016,-3.048 -1.1176,-3.4036 -4.064,-1.2192 -2.794,2.1844 -7.2136,6.9596 -9.3472,9.6012 0.6096,-1.6256 2.2352,-6.1468 3.5052,-8.9408 0.4064,-0.8128 0.4572,-1.27 -0.3556,-1.4732 -2.6416,-0.7112 -2.4384,1.6764 -2.6924,2.286 -1.016,2.794 -4.0132,11.4808 -4.4196,12.4968 -0.508,0.9652 2.1844,-0.254 2.6924,-0.508 0.9652,-0.5588 5.2324,-7.2644 8.128,-9.906 3.7084,-3.2004 3.9116,-1.9304 2.9972,-0.3048 z" />
        <path
           inkscape:connector-curvature="0"
           id="path894"
           style="font-style:normal;font-variant:normal;font-weight:normal;font-stretch:normal;font-size:50.79999924px;font-family:Allura;-inkscape-font-specification:Allura;fill:#ffffff;fill-opacity:1;stroke-width:0.25108388"
           d="m -34.990739,58.709327 c 1.9812,-1.1176 7.9756,-6.5024 10.2108,-9.0424 1.320799,-1.524 1.066799,-2.7432 -0.254,-1.2192 -3.1496,3.6576 -7.62,7.3152 -8.9408,8.0264 1.8796,-4.0132 3.7592,-7.7724 5.0292,-10.5664 0.254,-0.5588 -2.9464,-1.9304 -3.4036,-0.762 -1.8796,2.286 -5.1816,5.7912 -8.382,8.2804 -2.032,1.5748 -4.4196,2.8956 -4.9784,2.0828 -1.6256,-2.2352 2.54,-7.0612 4.064,-8.382 2.5908,-2.3368 6.1468,-4.3688 8.7884,-4.3688 0.9652,0 1.9812,0.1016 2.4892,0.9652 0.254,0.1016 0.4064,0.1016 0.4064,-0.254 0,-0.508 -0.4064,-1.016 -0.9144,-1.3716 -1.3208,-0.9144 -3.6068,-0.8128 -5.08,-0.4064 -3.81,0.9144 -15.3416,8.5344 -11.6332,13.3096 0.762,1.016 2.1844,1.7272 3.2512,1.7272 2.54,0 5.4864,-2.9972 7.366,-5.08 0.762,-0.8128 2.6924,-3.0988 4.064,-4.7752 -0.762,2.3368 -2.7432,7.0612 -5.08,11.8364 -3.302,2.1844 -8.5852,5.6896 -11.1252,8.636 -2.6924,3.1496 -4.2164,6.1976 -1.016,7.772399 0.254,0.1524 0.6604,0.254 1.016,0.3556 3.4544,0.6096 6.4516,-2.793999 8.3312,-5.587999 1.5748,-2.4892 3.6068,-6.7056 5.7912,-11.176 z m -3.9624,1.9304 c -2.1336,4.318 -4.3688,9.398 -8.2296,12.5984 -1.2192,0.9652 -1.9812,1.1176 -2.4384,0.8636 -1.6256,-0.8636 -0.3556,-3.9116 1.6764,-5.9436 2.6416,-2.6924 6.35,-5.5372 8.9916,-7.5184 z" />
      </g>
    </g>
  </g>
</svg>
